<svg width="109" height="28" viewBox="0 0 109 28" fill="none" xmlns="http://www.w3.org/2000/svg">
<path d="M21.0586 9.93948C21.0586 11.4278 20.7773 12.8692 20.2148 14.2637C19.6641 15.6465 18.9141 16.9473 17.9648 18.166C17.0156 19.3848 15.9082 20.5039 14.6426 21.5235C13.3887 22.543 12.0586 23.4278 10.6523 24.1778C9.24609 24.9278 7.80469 25.5254 6.32812 25.9707C4.85156 26.416 3.42773 26.6797 2.05664 26.7617V7.05667L5.67773 5.77347V24.916C7.33008 24.4356 8.8418 23.7442 10.2129 22.8418C11.5957 21.9278 12.7852 20.8496 13.7812 19.6075C14.7773 18.3653 15.5508 16.9766 16.1016 15.4414C16.6641 13.9063 16.9453 12.2657 16.9453 10.5196C16.9453 9.52347 16.8164 8.57425 16.5586 7.67191C16.3125 6.75784 15.9258 5.96097 15.3984 5.28128C14.8828 4.58987 14.2266 4.04495 13.4297 3.64651C12.6328 3.23636 11.6836 3.03128 10.582 3.03128C9.67969 3.03128 8.77148 3.13089 7.85742 3.33011C6.95508 3.52933 6.07031 3.81058 5.20312 4.17386C4.34766 4.52542 3.52148 4.9473 2.72461 5.43948C1.93945 5.93167 1.21289 6.47073 0.544922 7.05667L0 6.45901C0.703125 5.6973 1.53516 4.98245 2.49609 4.31448C3.45703 3.6348 4.48242 3.043 5.57227 2.53909C6.66211 2.02347 7.78125 1.61917 8.92969 1.3262C10.0781 1.02151 11.1914 0.869171 12.2695 0.869171C13.7227 0.869171 15 1.08597 16.1016 1.51956C17.2031 1.95316 18.1172 2.56839 18.8438 3.36526C19.582 4.16214 20.1328 5.11722 20.4961 6.2305C20.8711 7.34378 21.0586 8.58011 21.0586 9.93948Z" fill="black"/>
<path d="M36.4746 24.2305C36.334 24.5352 36.1582 24.8223 35.9473 25.0918C35.7363 25.3614 35.4902 25.6016 35.209 25.8125C34.9395 26.0235 34.6406 26.1934 34.3125 26.3223C33.9961 26.4395 33.6621 26.4981 33.3105 26.4981C32.3848 26.4981 31.7168 26.2461 31.3066 25.7422C30.9082 25.2266 30.709 24.5293 30.709 23.6504V23.334C30.498 23.7325 30.2578 24.1309 29.9883 24.5293C29.7305 24.9278 29.4316 25.2852 29.0918 25.6016C28.7637 25.918 28.3945 26.1758 27.9844 26.375C27.5742 26.5742 27.1172 26.6739 26.6133 26.6739C25.8516 26.6739 25.1777 26.5274 24.5918 26.2344C24.0059 25.9414 23.5137 25.5489 23.1152 25.0567C22.7168 24.5528 22.418 23.9668 22.2188 23.2989C22.0195 22.6309 21.9199 21.9219 21.9199 21.1719C21.9199 20.1524 22.0957 19.1387 22.4473 18.1309C22.8105 17.1114 23.3145 16.2032 23.959 15.4063C24.6152 14.6094 25.3945 13.9649 26.2969 13.4727C27.2109 12.9688 28.2246 12.7168 29.3379 12.7168C29.7832 12.7168 30.2285 12.7578 30.6738 12.8399C31.1191 12.9219 31.541 13.0567 31.9395 13.2442C32.3496 13.42 32.7188 13.6543 33.0469 13.9473C33.3867 14.2403 33.6621 14.5977 33.873 15.0196L31.2539 16.127C31.1133 15.9043 30.9492 15.6934 30.7617 15.4942C30.5859 15.2832 30.3867 15.1016 30.1641 14.9492C29.9531 14.7969 29.7246 14.6739 29.4785 14.5801C29.2324 14.4864 28.9746 14.4395 28.7051 14.4395C28.0957 14.4395 27.5508 14.627 27.0703 15.002C26.6016 15.377 26.1973 15.8399 25.8574 16.3907C25.5293 16.9414 25.2773 17.5274 25.1016 18.1485C24.9258 18.7696 24.8379 19.3321 24.8379 19.836C24.8379 20.2813 24.8789 20.7852 24.9609 21.3477C25.0547 21.8985 25.2129 22.42 25.4355 22.9121C25.6582 23.4043 25.9512 23.8203 26.3145 24.1602C26.6777 24.5 27.1348 24.67 27.6855 24.67C28.1191 24.67 28.4941 24.5762 28.8105 24.3887C29.127 24.1895 29.3965 23.9375 29.6191 23.6328C29.8418 23.3164 30.0234 22.959 30.1641 22.5606C30.3164 22.1504 30.4277 21.7344 30.498 21.3125C30.5801 20.8907 30.6328 20.4746 30.6562 20.0645C30.6914 19.6426 30.709 19.2676 30.709 18.9395V17.7266L33.9082 16.6016V23.7383C33.9082 23.9727 33.9668 24.1895 34.084 24.3887C34.2012 24.5762 34.3828 24.67 34.6289 24.67C34.9219 24.67 35.1855 24.5645 35.4199 24.3535C35.666 24.1309 35.8594 23.9082 36 23.6856L36.4746 24.2305Z" fill="black"/>
<path d="M40.4824 3.38284C40.4824 3.83987 40.4062 4.27347 40.2539 4.68362C40.1016 5.09378 39.8906 5.47464 39.6211 5.8262C39.3633 6.17776 39.0586 6.50003 38.707 6.793C38.3672 7.08597 38.0098 7.34378 37.6348 7.56644L37.002 7.02151C37.2129 6.8223 37.4121 6.57034 37.5996 6.26566C37.7871 5.96097 37.9102 5.66214 37.9688 5.36917C37.5234 5.24026 37.1543 5.00003 36.8613 4.64847C36.5684 4.28519 36.4219 3.86331 36.4219 3.38284C36.4219 3.10159 36.4746 2.83792 36.5801 2.59183C36.6855 2.34573 36.8262 2.1348 37.002 1.95901C37.1895 1.77151 37.4062 1.62503 37.6523 1.51956C37.8984 1.40237 38.1621 1.34378 38.4434 1.34378C38.7246 1.34378 38.9883 1.40237 39.2344 1.51956C39.4805 1.62503 39.6914 1.77151 39.8672 1.95901C40.0547 2.1348 40.2012 2.34573 40.3066 2.59183C40.4238 2.83792 40.4824 3.10159 40.4824 3.38284Z" fill="black"/>
<path d="M61.5938 24.2657C61.3242 24.8399 61.0078 25.2793 60.6445 25.584C60.2812 25.8887 59.9355 26.1114 59.6074 26.252C59.2207 26.416 58.8281 26.5098 58.4297 26.5332C57.9023 26.5332 57.4688 26.4512 57.1289 26.2871C56.8008 26.1231 56.5371 25.9063 56.3379 25.6367C56.1387 25.3672 55.998 25.0625 55.916 24.7227C55.8457 24.3828 55.8105 24.0371 55.8105 23.6856V16.3203C55.8105 16.1328 55.7754 15.9688 55.7051 15.8282C55.6348 15.6758 55.541 15.5879 55.4238 15.5645C55.3066 15.541 55.166 15.5996 55.002 15.7403C54.8379 15.8809 54.6621 16.1328 54.4746 16.4961C54.1582 17.4336 53.8711 18.418 53.6133 19.4492C53.3906 20.3399 53.1855 21.3477 52.998 22.4727C52.8223 23.586 52.7227 24.7344 52.6992 25.918L49.4648 27.043V16.3203C49.4648 16.1328 49.4297 15.9688 49.3594 15.8282C49.2891 15.6758 49.1895 15.5879 49.0605 15.5645C48.9434 15.541 48.8027 15.5996 48.6387 15.7403C48.4746 15.8809 48.3047 16.1328 48.1289 16.4961C47.7773 17.4805 47.4727 18.5059 47.2148 19.5723C47.0977 20.0293 46.9863 20.5157 46.8809 21.0313C46.7754 21.5469 46.6816 22.0801 46.5996 22.6309C46.5293 23.17 46.4707 23.7207 46.4238 24.2832C46.377 24.834 46.3594 25.3789 46.3711 25.918L43.1719 27.043V15.2305C43.1719 14.9492 43.1074 14.7266 42.9785 14.5625C42.8496 14.3985 42.6797 14.3164 42.4688 14.3164C42.2695 14.3047 42.0469 14.375 41.8008 14.5274C41.5547 14.6797 41.3145 14.9258 41.0801 15.2657L40.6055 14.7383C40.875 14.1758 41.1855 13.7422 41.5371 13.4375C41.9004 13.1211 42.252 12.8926 42.5918 12.752C42.9785 12.5879 43.377 12.4942 43.7871 12.4707C44.3027 12.4707 44.7246 12.5528 45.0527 12.7168C45.3926 12.8809 45.6562 13.0977 45.8438 13.3672C46.043 13.625 46.1777 13.9239 46.248 14.2637C46.3301 14.6035 46.3711 14.9492 46.3711 15.3008V19.0098C46.582 17.9551 46.8984 17.0235 47.3203 16.2149C47.7422 15.4063 48.1816 14.7266 48.6387 14.1758C49.1074 13.6133 49.5645 13.1914 50.0098 12.9102C50.4551 12.6172 50.8125 12.4707 51.082 12.4707C51.4219 12.4707 51.6973 12.5293 51.9082 12.6465C52.1191 12.752 52.2832 12.916 52.4004 13.1387C52.5176 13.3614 52.5938 13.6367 52.6289 13.9649C52.6758 14.2813 52.6992 14.6563 52.6992 15.0899V19.0098C52.9219 17.9551 53.2383 17.0235 53.6484 16.2149C54.0703 15.4063 54.5156 14.7266 54.9844 14.1758C55.4531 13.6133 55.9102 13.1914 56.3555 12.9102C56.8008 12.6172 57.1582 12.4707 57.4277 12.4707C58.0957 12.4707 58.5293 12.6934 58.7285 13.1387C58.9395 13.5723 59.0449 14.2227 59.0449 15.0899V23.7735C59.0449 24.0547 59.1094 24.2774 59.2383 24.4414C59.3672 24.6055 59.5312 24.6934 59.7305 24.7051C59.9297 24.7051 60.1465 24.6289 60.3809 24.4766C60.627 24.3242 60.8672 24.0782 61.1016 23.7383L61.5938 24.2657Z" fill="black"/>
<path d="M75.5156 22.8946C75.1055 23.4219 74.6543 23.9141 74.1621 24.3711C73.6816 24.8282 73.1543 25.2266 72.5801 25.5664C72.0176 25.9063 71.4199 26.1758 70.7871 26.375C70.1543 26.5742 69.498 26.6739 68.8184 26.6739C67.9512 26.6739 67.1543 26.5215 66.4277 26.2168C65.7012 25.9004 65.0742 25.4727 64.5469 24.9336C64.0195 24.3828 63.6094 23.7383 63.3164 23C63.0234 22.25 62.877 21.4473 62.877 20.5918C62.877 19.8887 62.9766 19.1973 63.1758 18.5176C63.375 17.8379 63.6562 17.1992 64.0195 16.6016C64.3828 16.0039 64.8105 15.4532 65.3027 14.9492C65.8066 14.4336 66.3574 13.9942 66.9551 13.6309C67.5527 13.2676 68.1855 12.9864 68.8535 12.7871C69.5215 12.5762 70.207 12.4707 70.9102 12.4707C71.4023 12.4707 71.8652 12.5293 72.2988 12.6465C72.7441 12.7637 73.1367 12.9512 73.4766 13.209C73.8164 13.4551 74.0859 13.7774 74.2852 14.1758C74.4844 14.5625 74.584 15.0254 74.584 15.5645C74.584 16.0098 74.4492 16.4785 74.1797 16.9707C73.9219 17.4629 73.5762 17.9551 73.1426 18.4473C72.7207 18.9395 72.2402 19.4258 71.7012 19.9063C71.1621 20.375 70.6113 20.8145 70.0488 21.2246C69.498 21.6231 68.9648 21.9746 68.4492 22.2793C67.9336 22.584 67.4824 22.8184 67.0957 22.9825C67.5293 23.5215 68.0332 23.961 68.6074 24.3008C69.1816 24.6407 69.791 24.8106 70.4355 24.8106C70.8457 24.8106 71.2617 24.7344 71.6836 24.5821C72.1055 24.418 72.5098 24.2129 72.8965 23.9668C73.2949 23.7207 73.6699 23.4512 74.0215 23.1582C74.3848 22.8653 74.707 22.5899 74.9883 22.3321L75.5156 22.8946ZM71.2793 16.2149C71.2793 15.9453 71.2324 15.6875 71.1387 15.4414C71.0566 15.1953 70.9336 14.9844 70.7695 14.8086C70.6055 14.6211 70.4062 14.4746 70.1719 14.3692C69.9492 14.252 69.6914 14.1934 69.3984 14.1934C68.8711 14.1934 68.3848 14.3809 67.9395 14.7559C67.4941 15.1192 67.1074 15.5703 66.7793 16.1094C66.4629 16.6485 66.2109 17.2227 66.0234 17.8321C65.8477 18.4297 65.7598 18.9571 65.7598 19.4141C65.7598 19.8594 65.8301 20.3164 65.9707 20.7852C66.1113 21.2539 66.3047 21.7051 66.5508 22.1387C67.0195 21.8809 67.5293 21.5235 68.0801 21.0664C68.6309 20.6094 69.1406 20.1114 69.6094 19.5723C70.0898 19.0215 70.4883 18.4532 70.8047 17.8672C71.1211 17.2813 71.2793 16.7305 71.2793 16.2149Z" fill="black"/>
<path d="M92.5664 24.2657C92.4258 24.5703 92.2441 24.8575 92.0215 25.127C91.7988 25.3965 91.5469 25.6367 91.2656 25.8477C90.9961 26.0586 90.7031 26.2227 90.3867 26.3399C90.0703 26.4688 89.7422 26.5332 89.4023 26.5332C88.4766 26.5332 87.8027 26.2813 87.3809 25.7774C86.9707 25.2617 86.7656 24.5645 86.7656 23.6856V16.5313C86.7656 16.4492 86.7598 16.3555 86.748 16.25C86.748 16.1328 86.7305 16.0274 86.6953 15.9336C86.6602 15.8282 86.6133 15.7403 86.5547 15.67C86.4961 15.5996 86.4141 15.5645 86.3086 15.5645C85.9805 15.5645 85.6465 15.7637 85.3066 16.1621C84.9785 16.5606 84.6562 17.0762 84.3398 17.709C84.0352 18.3418 83.748 19.0508 83.4785 19.836C83.2207 20.6211 82.9922 21.4004 82.793 22.1739C82.5938 22.9356 82.4355 23.6504 82.3184 24.3184C82.2129 24.9864 82.1602 25.5196 82.1602 25.918L78.9609 27.043V15.2305C78.9609 14.9961 78.9023 14.7852 78.7852 14.5977C78.668 14.3985 78.4863 14.2989 78.2402 14.2989C77.9473 14.2989 77.6777 14.4102 77.4316 14.6328C77.1973 14.8438 77.0098 15.0547 76.8691 15.2657L76.3945 14.7383C76.5352 14.4453 76.7109 14.1641 76.9219 13.8946C77.1445 13.6133 77.3906 13.3672 77.6602 13.1563C77.9414 12.9453 78.2402 12.7813 78.5566 12.6641C78.8848 12.5352 79.2246 12.4707 79.5762 12.4707C80.4902 12.4707 81.1465 12.7285 81.5449 13.2442C81.9551 13.7481 82.1602 14.4336 82.1602 15.3008V21.0313C82.2656 20.5508 82.4062 20.0059 82.582 19.3965C82.7695 18.7754 82.9922 18.1485 83.25 17.5157C83.5078 16.8828 83.7949 16.2676 84.1113 15.67C84.4395 15.0606 84.7969 14.5215 85.1836 14.0528C85.5703 13.5723 85.9922 13.1914 86.4492 12.9102C86.9062 12.6172 87.3984 12.4707 87.9258 12.4707C88.4766 12.4707 88.8926 12.5938 89.1738 12.8399C89.4551 13.0742 89.6543 13.3789 89.7715 13.7539C89.9004 14.1172 89.9707 14.5215 89.9824 14.9668C89.9941 15.4121 90 15.8399 90 16.25V23.7735C90 24.0078 90.0586 24.2246 90.1758 24.4239C90.293 24.6114 90.4746 24.7051 90.7207 24.7051C90.9902 24.7051 91.2422 24.5996 91.4766 24.3887C91.7227 24.166 91.916 23.9492 92.0566 23.7383L92.5664 24.2657Z" fill="black"/>
<path d="M108.756 24.2657C108.486 24.8399 108.17 25.2793 107.807 25.584C107.443 25.8887 107.098 26.1114 106.77 26.252C106.383 26.416 105.99 26.5098 105.592 26.5332C105.064 26.5332 104.631 26.4512 104.291 26.2871C103.963 26.1231 103.699 25.9063 103.5 25.6367C103.301 25.3672 103.16 25.0625 103.078 24.7227C103.008 24.3828 102.973 24.0371 102.973 23.6856V18.0782C102.879 18.5 102.756 19.0039 102.604 19.5899C102.463 20.1758 102.287 20.791 102.076 21.4356C101.865 22.0684 101.619 22.7012 101.338 23.334C101.057 23.9551 100.729 24.5117 100.354 25.0039C99.9902 25.4961 99.5742 25.9004 99.1055 26.2168C98.6484 26.5215 98.1328 26.6739 97.5586 26.6739C97.0781 26.6739 96.6973 26.5801 96.416 26.3926C96.1465 26.2168 95.9414 25.9649 95.8008 25.6367C95.6719 25.2969 95.5898 24.8985 95.5547 24.4414C95.5312 23.9727 95.5195 23.4571 95.5195 22.8946V15.2657C95.5195 14.9844 95.4551 14.7617 95.3262 14.5977C95.1973 14.4336 95.0273 14.3516 94.8164 14.3516C94.6172 14.3399 94.3945 14.4102 94.1484 14.5625C93.9023 14.7149 93.6621 14.961 93.4277 15.3008L92.9531 14.7735C93.2227 14.211 93.5332 13.7774 93.8848 13.4727C94.2363 13.1563 94.582 12.9278 94.9219 12.7871C95.3086 12.6231 95.707 12.5293 96.1172 12.5059C96.6445 12.5059 97.0723 12.5879 97.4004 12.752C97.7402 12.916 98.0039 13.1328 98.1914 13.4024C98.3906 13.6602 98.5254 13.959 98.5957 14.2989C98.6777 14.6387 98.7188 14.9844 98.7188 15.336V22.6133C98.7188 23.0703 98.8008 23.3692 98.9648 23.5098C99.1289 23.6504 99.3398 23.6328 99.5977 23.4571C99.8672 23.2696 100.16 22.9356 100.477 22.4551C100.805 21.9629 101.133 21.3184 101.461 20.5215C101.672 19.7598 101.877 18.9746 102.076 18.166C102.24 17.4746 102.404 16.7129 102.568 15.8809C102.744 15.0489 102.879 14.2461 102.973 13.4727L106.207 12.3477V23.7735C106.207 24.0547 106.271 24.2774 106.4 24.4414C106.529 24.6055 106.693 24.6934 106.893 24.7051C107.092 24.7051 107.309 24.6289 107.543 24.4766C107.789 24.3242 108.029 24.0782 108.264 23.7383L108.756 24.2657Z" fill="black"/>
</svg>